<svg xmlns="http://www.w3.org/2000/svg" viewBox="0 0 128 128" width="128" height="128"><defs><radialGradient id="bg16" cx="50%" cy="35%" r="70%"><stop offset="0" stop-color="#4b6654"/><stop offset="1" stop-color="#18241c"/></radialGradient><linearGradient id="fur16" x1="0" y1="0" x2="0" y2="1"><stop offset="0" stop-color="#4c4a47"/><stop offset=".45" stop-color="#8f8d88"/><stop offset="1" stop-color="#8f8d88"/></linearGradient><clipPath id="clip16"><circle cx="64" cy="64" r="62"/></clipPath></defs><g clip-path="url(#clip16)"><circle cx="64" cy="64" r="62" fill="url(#bg16)"/><path d="M14,70 l-7,16 h14z M14,78 l-9,18 h18z" fill="#18241c"/><path d="M28,64 l-7,16 h14z M28,72 l-9,18 h18z" fill="#18241c"/><path d="M100,66 l-7,16 h14z M100,74 l-9,18 h18z" fill="#18241c"/><path d="M115,72 l-7,16 h14z M115,80 l-9,18 h18z" fill="#18241c"/><path d="M8,82 l-7,16 h14z M8,90 l-9,18 h18z" fill="#18241c"/><path d="M120,84 l-7,16 h14z M120,92 l-9,18 h18z" fill="#18241c"/><rect x="0" y="100" width="128" height="28" fill="#18241c"/><g transform="translate(64 76) scale(1.2) translate(-64 -72)"><path d="M64,40 L55,39 L42,19 L42,51 L36.1,55.2 L36.4,57.1 L29.5,63.8 L33.4,65.5 L26.5,73.8 L32.9,75.2 L27.1,83.7 L34.6,85.1 L31.2,92.6 L38.4,94.1 L38.2,99.4 L44,101 L56,107 L64,109 L72,107 L84,101 L89.8,99.4 L89.6,94.1 L96.8,92.6 L93.4,85.1 L100.9,83.7 L95.1,75.2 L101.5,73.8 L94.6,65.5 L98.5,63.8 L91.6,57.1 L91.9,55.2 L86,51 L86,19 L73,39Z" fill="url(#fur16)" stroke="#4c4a47" stroke-width="1.2" stroke-linejoin="round"/><path d="M52,42 L43.5,29 L46,50Z" fill="#4c4a47" opacity=".75"/><path d="M52,45 L43.5,32 L46,50Z" fill="#ebe4d8" opacity=".35"/><path d="M76,42 L84.5,29 L82,50Z" fill="#4c4a47" opacity=".75"/><path d="M76,45 L84.5,32 L82,50Z" fill="#ebe4d8" opacity=".35"/><path d="M56,70 L47.5,75 L42.2,87 L47,99 L57,107 L64,109 L71,107 L81,99 L85.8,87 L80.5,75 L72,70Z" fill="#ebe4d8"/><ellipse cx="51" cy="55" rx="5" ry="2.6" fill="#ebe4d8" opacity=".8"/><ellipse cx="77" cy="55" rx="5" ry="2.6" fill="#ebe4d8" opacity=".8"/><path d="M44,58 Q51,53 57,57 M84,58 Q77,53 71,57" stroke="#4c4a47" stroke-width="2.4" fill="none" stroke-linecap="round"/><path d="M40.2,74 l5,3 l1,-4" stroke="#4c4a47" stroke-width="1.2" fill="none" opacity=".5" stroke-linejoin="round"/><path d="M37.6,82 l5,3 l1,-4" stroke="#4c4a47" stroke-width="1.2" fill="none" opacity=".5" stroke-linejoin="round"/><path d="M40.9,90 l5,3 l1,-4" stroke="#4c4a47" stroke-width="1.2" fill="none" opacity=".5" stroke-linejoin="round"/><path d="M87.8,74 l-5,3 l-1,-4" stroke="#4c4a47" stroke-width="1.2" fill="none" opacity=".5" stroke-linejoin="round"/><path d="M90.4,82 l-5,3 l-1,-4" stroke="#4c4a47" stroke-width="1.2" fill="none" opacity=".5" stroke-linejoin="round"/><path d="M87.1,90 l-5,3 l-1,-4" stroke="#4c4a47" stroke-width="1.2" fill="none" opacity=".5" stroke-linejoin="round"/><path d="M59,57 C58,66.9 55,70.2 55,75.7 Q55,85 64,86 Q73,85 73,75.7 C73,70.2 70,66.9 69,57Z" fill="#d2c8b6" stroke="#4c4a47" stroke-opacity=".35" stroke-width="1.1"/><path d="M61,58 Q64,69.1 67,58" fill="#4c4a47" opacity=".18"/><path d="M58,77 Q64,74 70,77 Q69,82 64,83 Q59,82 58,77Z" fill="#1b1714"/><ellipse cx="62.2" cy="77" rx="1.6" ry=".9" fill="#fff" opacity=".35"/><path d="M64,83 V86 M59,87.5 Q64,89 64,86 Q64,89 69,87.5" stroke="#1b1714" stroke-width="1.3" fill="none" stroke-linecap="round"/><path d="M44.5,63.5 Q50,57.5 57,60.5 Q52,65.2 44.5,63.5Z" fill="#d9a032" stroke="#120f0c" stroke-width="1.3" stroke-linejoin="round"/><circle cx="51" cy="62" r="1.9" fill="#0b0908"/><circle cx="51.9" cy="61.1" r="0.7" fill="#fff" opacity=".9"/><path d="M83.5,63.5 Q78,57.5 71,60.5 Q76,65.2 83.5,63.5Z" fill="#d9a032" stroke="#120f0c" stroke-width="1.3" stroke-linejoin="round"/><circle cx="77" cy="62" r="1.9" fill="#0b0908"/><circle cx="76.1" cy="61.1" r="0.7" fill="#fff" opacity=".9"/></g></g><circle cx="64" cy="64" r="60.8" fill="none" stroke="#9fb2d4" stroke-width="2.5"/></svg>