<svg xmlns="http://www.w3.org/2000/svg" viewBox="0 0 128 128" width="128" height="128"><defs><radialGradient id="bg20" cx="50%" cy="35%" r="70%"><stop offset="0" stop-color="#98d0ec"/><stop offset="1" stop-color="#24506e"/></radialGradient><linearGradient id="fur20" x1="0" y1="0" x2="0" y2="1"><stop offset="0" stop-color="#3e342a"/><stop offset=".45" stop-color="#7a6a58"/><stop offset="1" stop-color="#7a6a58"/></linearGradient><clipPath id="clip20"><circle cx="64" cy="64" r="62"/></clipPath></defs><g clip-path="url(#clip20)"><circle cx="64" cy="64" r="62" fill="url(#bg20)"/><path d="M10,0 l4,14 l4,-14z" fill="#e8f8ff" opacity=".75"/><path d="M22,0 l4,9 l4,-9z" fill="#e8f8ff" opacity=".75"/><path d="M96,0 l4,12 l4,-12z" fill="#e8f8ff" opacity=".75"/><path d="M108,0 l4,16 l4,-16z" fill="#e8f8ff" opacity=".75"/><path d="M0,100 Q32,88 64,98 T128,96 V128 H0Z" fill="#eef6fb" opacity=".55"/><circle cx="16" cy="30" r="1.3" fill="#fff" opacity=".7"/><circle cx="28" cy="52" r="1.3" fill="#fff" opacity=".7"/><circle cx="106" cy="34" r="1.3" fill="#fff" opacity=".7"/><circle cx="116" cy="58" r="1.3" fill="#fff" opacity=".7"/><circle cx="20" cy="76" r="1.3" fill="#fff" opacity=".7"/><circle cx="110" cy="80" r="1.3" fill="#fff" opacity=".7"/><circle cx="40" cy="20" r="1.3" fill="#fff" opacity=".7"/><circle cx="90" cy="22" r="1.3" fill="#fff" opacity=".7"/><g transform="translate(64 76) scale(1.2) translate(-64 -72)"><path d="M64,40 L55,39 L42,19 L39,51 L32.8,55.2 L33,57.1 L25.9,63.8 L29.7,65.5 L22.6,73.8 L28.9,75.2 L23,83.7 L30.3,85.1 L26.8,92.6 L33.8,94.1 L33.4,99.4 L39,101 L56,107 L64,109 L72,107 L89,101 L94.6,99.4 L94.2,94.1 L101.2,92.6 L97.7,85.1 L105,83.7 L99.1,75.2 L105.4,73.8 L98.3,65.5 L102.1,63.8 L95,57.1 L95.2,55.2 L89,51 L86,19 L73,39Z" fill="url(#fur20)" stroke="#3e342a" stroke-width="1.2" stroke-linejoin="round"/><path d="M52,42 L43.5,29 L43,50Z" fill="#3e342a" opacity=".75"/><path d="M52,45 L43.5,32 L43,50Z" fill="#cbbda7" opacity=".35"/><path d="M76,42 L84.5,29 L85,50Z" fill="#3e342a" opacity=".75"/><path d="M76,45 L84.5,32 L85,50Z" fill="#cbbda7" opacity=".35"/><path d="M56,70 L45.5,75 L39.6,87 L42.8,99 L57,107 L64,109 L71,107 L85.2,99 L88.4,87 L82.5,75 L72,70Z" fill="#cbbda7"/><ellipse cx="51" cy="55" rx="5" ry="2.6" fill="#cbbda7" opacity=".8"/><ellipse cx="77" cy="55" rx="5" ry="2.6" fill="#cbbda7" opacity=".8"/><path d="M37.4,74 l5,3 l1,-4" stroke="#3e342a" stroke-width="1.2" fill="none" opacity=".5" stroke-linejoin="round"/><path d="M34.4,82 l5,3 l1,-4" stroke="#3e342a" stroke-width="1.2" fill="none" opacity=".5" stroke-linejoin="round"/><path d="M38.1,90 l5,3 l1,-4" stroke="#3e342a" stroke-width="1.2" fill="none" opacity=".5" stroke-linejoin="round"/><path d="M90.6,74 l-5,3 l-1,-4" stroke="#3e342a" stroke-width="1.2" fill="none" opacity=".5" stroke-linejoin="round"/><path d="M93.6,82 l-5,3 l-1,-4" stroke="#3e342a" stroke-width="1.2" fill="none" opacity=".5" stroke-linejoin="round"/><path d="M89.9,90 l-5,3 l-1,-4" stroke="#3e342a" stroke-width="1.2" fill="none" opacity=".5" stroke-linejoin="round"/><path d="M59,57 C58,66 53,69 53,74 Q53,83 64,84 Q75,83 75,74 C75,69 70,66 69,57Z" fill="#a8977f" stroke="#3e342a" stroke-opacity=".35" stroke-width="1.1"/><path d="M61,58 Q64,68.0 67,58" fill="#3e342a" opacity=".18"/><path d="M58,75 Q64,72 70,75 Q69,80 64,81 Q59,80 58,75Z" fill="#1b1714"/><ellipse cx="62.2" cy="75" rx="1.6" ry=".9" fill="#fff" opacity=".35"/><path d="M64,81 V84 M59,85.5 Q64,87 64,84 Q64,87 69,85.5" stroke="#1b1714" stroke-width="1.3" fill="none" stroke-linecap="round"/><path d="M44.5,63.5 Q50,57.5 57,60.5 Q52,65.2 44.5,63.5Z" fill="#d9a032" stroke="#120f0c" stroke-width="1.3" stroke-linejoin="round"/><circle cx="51" cy="62" r="1.9" fill="#0b0908"/><circle cx="51.9" cy="61.1" r="0.7" fill="#fff" opacity=".9"/><path d="M83.5,63.5 Q78,57.5 71,60.5 Q76,65.2 83.5,63.5Z" fill="#d9a032" stroke="#120f0c" stroke-width="1.3" stroke-linejoin="round"/><circle cx="77" cy="62" r="1.9" fill="#0b0908"/><circle cx="76.1" cy="61.1" r="0.7" fill="#fff" opacity=".9"/></g></g><circle cx="64" cy="64" r="60.2" fill="none" stroke="#a8e6ff" stroke-width="3.5"/></svg>