<svg xmlns="http://www.w3.org/2000/svg" viewBox="0 0 128 128" width="128" height="128"><defs><radialGradient id="bg3" cx="50%" cy="35%" r="70%"><stop offset="0" stop-color="#e3b56b"/><stop offset="1" stop-color="#7a4b1f"/></radialGradient><linearGradient id="fur3" x1="0" y1="0" x2="0" y2="1"><stop offset="0" stop-color="#957b54"/><stop offset=".45" stop-color="#cdb48a"/><stop offset="1" stop-color="#cdb48a"/></linearGradient><clipPath id="clip3"><circle cx="64" cy="64" r="62"/></clipPath></defs><g clip-path="url(#clip3)"><circle cx="64" cy="64" r="62" fill="url(#bg3)"/><path d="M0,96 Q30,82 56,96 T128,92 V128 H0Z" fill="#7a4b1f" opacity=".85"/><path d="M0,108 Q40,96 80,110 T128,106 V128 H0Z" fill="#7a4b1f"/><g transform="translate(64 76) scale(1) translate(-64 -72)"><path d="M64,40 L52.8,39 L34,10 L45,51 L40.3,54.9 L40.6,57.1 L35.7,63.1 L38.4,65.5 L33.7,72.7 L38.2,75.2 L34.5,82.7 L39.9,85.1 L37.7,91.8 L43.2,94.1 L43.1,99.1 L48,101 L56,107 L64,109 L72,107 L80,101 L84.9,99.1 L84.8,94.1 L90.3,91.8 L88.1,85.1 L93.5,82.7 L89.8,75.2 L94.3,72.7 L89.6,65.5 L92.3,63.1 L87.4,57.1 L87.7,54.9 L83,51 L94,10 L75.2,39Z" fill="url(#fur3)" stroke="#957b54" stroke-width="1.2" stroke-linejoin="round"/><path d="M49.8,42 L35.5,20 L49,50Z" fill="#957b54" opacity=".75"/><path d="M49.8,45 L35.5,23 L49,50Z" fill="#f1e6cf" opacity=".35"/><path d="M78.2,42 L92.5,20 L79,50Z" fill="#957b54" opacity=".75"/><path d="M78.2,45 L92.5,23 L79,50Z" fill="#f1e6cf" opacity=".35"/><path d="M56,70 L50.5,75 L46.2,87 L50.4,99 L57,107 L64,109 L71,107 L77.6,99 L81.8,87 L77.5,75 L72,70Z" fill="#f1e6cf"/><ellipse cx="51" cy="55" rx="5" ry="2.6" fill="#f1e6cf" opacity=".8"/><ellipse cx="77" cy="55" rx="5" ry="2.6" fill="#f1e6cf" opacity=".8"/><path d="M44.6,74 l5,3 l1,-4" stroke="#957b54" stroke-width="1.2" fill="none" opacity=".5" stroke-linejoin="round"/><path d="M42.4,82 l5,3 l1,-4" stroke="#957b54" stroke-width="1.2" fill="none" opacity=".5" stroke-linejoin="round"/><path d="M45.1,90 l5,3 l1,-4" stroke="#957b54" stroke-width="1.2" fill="none" opacity=".5" stroke-linejoin="round"/><path d="M83.4,74 l-5,3 l-1,-4" stroke="#957b54" stroke-width="1.2" fill="none" opacity=".5" stroke-linejoin="round"/><path d="M85.6,82 l-5,3 l-1,-4" stroke="#957b54" stroke-width="1.2" fill="none" opacity=".5" stroke-linejoin="round"/><path d="M82.9,90 l-5,3 l-1,-4" stroke="#957b54" stroke-width="1.2" fill="none" opacity=".5" stroke-linejoin="round"/><path d="M59,57 C58,66.9 56,70.2 56,75.7 Q56,85 64,86 Q72,85 72,75.7 C72,70.2 70,66.9 69,57Z" fill="#e3d1ae" stroke="#957b54" stroke-opacity=".35" stroke-width="1.1"/><path d="M61,58 Q64,69.1 67,58" fill="#957b54" opacity=".18"/><path d="M58,77 Q64,74 70,77 Q69,82 64,83 Q59,82 58,77Z" fill="#1b1714"/><ellipse cx="62.2" cy="77" rx="1.6" ry=".9" fill="#fff" opacity=".35"/><path d="M64,83 V86 M59,87.5 Q64,89 64,86 Q64,89 69,87.5" stroke="#1b1714" stroke-width="1.3" fill="none" stroke-linecap="round"/><path d="M44.5,63.5 Q50,57.5 57,60.5 Q52,65.2 44.5,63.5Z" fill="#d9a032" stroke="#120f0c" stroke-width="1.3" stroke-linejoin="round"/><circle cx="51" cy="62" r="1.9" fill="#0b0908"/><circle cx="51.9" cy="61.1" r="0.7" fill="#fff" opacity=".9"/><path d="M83.5,63.5 Q78,57.5 71,60.5 Q76,65.2 83.5,63.5Z" fill="#d9a032" stroke="#120f0c" stroke-width="1.3" stroke-linejoin="round"/><circle cx="77" cy="62" r="1.9" fill="#0b0908"/><circle cx="76.1" cy="61.1" r="0.7" fill="#fff" opacity=".9"/></g></g><circle cx="64" cy="64" r="60.8" fill="none" stroke="#9fb2d4" stroke-width="2.5"/></svg>