<svg xmlns="http://www.w3.org/2000/svg" viewBox="0 0 128 128" width="128" height="128"><defs><radialGradient id="bg6" cx="50%" cy="35%" r="70%"><stop offset="0" stop-color="#6c8aa0"/><stop offset="1" stop-color="#24323d"/></radialGradient><linearGradient id="fur6" x1="0" y1="0" x2="0" y2="1"><stop offset="0" stop-color="#43382d"/><stop offset=".45" stop-color="#8e7a64"/><stop offset="1" stop-color="#8e7a64"/></linearGradient><clipPath id="clip6"><circle cx="64" cy="64" r="62"/></clipPath></defs><g clip-path="url(#clip6)"><circle cx="64" cy="64" r="62" fill="url(#bg6)"/><path d="M0,98 L18,70 L30,84 L44,62 L60,90 L76,66 L96,88 L110,68 L128,92 V128 H0Z" fill="#24323d" opacity=".9"/><path d="M44,62 L38,72 L44,70 L49,74Z M110,68 L105,76 L111,74Z" fill="#fff" opacity=".35"/><g transform="translate(64 76) scale(1.1) translate(-64 -72)"><path d="M64,40 L55,39 L42,19 L42,51 L36.1,55.2 L36.4,57.1 L29.5,63.8 L33.4,65.5 L26.5,73.8 L32.9,75.2 L27.1,83.7 L34.6,85.1 L31.2,92.6 L38.4,94.1 L38.2,99.4 L44,101 L56,107 L64,109 L72,107 L84,101 L89.8,99.4 L89.6,94.1 L96.8,92.6 L93.4,85.1 L100.9,83.7 L95.1,75.2 L101.5,73.8 L94.6,65.5 L98.5,63.8 L91.6,57.1 L91.9,55.2 L86,51 L86,19 L73,39Z" fill="url(#fur6)" stroke="#43382d" stroke-width="1.2" stroke-linejoin="round"/><path d="M52,42 L43.5,29 L46,50Z" fill="#43382d" opacity=".75"/><path d="M52,45 L43.5,32 L46,50Z" fill="#e4d6c2" opacity=".35"/><path d="M76,42 L84.5,29 L82,50Z" fill="#43382d" opacity=".75"/><path d="M76,45 L84.5,32 L82,50Z" fill="#e4d6c2" opacity=".35"/><path d="M56,70 L47.5,75 L42.2,87 L47,99 L57,107 L64,109 L71,107 L81,99 L85.8,87 L80.5,75 L72,70Z" fill="#e4d6c2"/><ellipse cx="51" cy="55" rx="5" ry="2.6" fill="#e4d6c2" opacity=".8"/><ellipse cx="77" cy="55" rx="5" ry="2.6" fill="#e4d6c2" opacity=".8"/><path d="M60,38 L68,38 L66.5,60 L61.5,60Z" fill="#43382d" opacity=".85"/><path d="M40.2,74 l5,3 l1,-4" stroke="#43382d" stroke-width="1.2" fill="none" opacity=".5" stroke-linejoin="round"/><path d="M37.6,82 l5,3 l1,-4" stroke="#43382d" stroke-width="1.2" fill="none" opacity=".5" stroke-linejoin="round"/><path d="M40.9,90 l5,3 l1,-4" stroke="#43382d" stroke-width="1.2" fill="none" opacity=".5" stroke-linejoin="round"/><path d="M87.8,74 l-5,3 l-1,-4" stroke="#43382d" stroke-width="1.2" fill="none" opacity=".5" stroke-linejoin="round"/><path d="M90.4,82 l-5,3 l-1,-4" stroke="#43382d" stroke-width="1.2" fill="none" opacity=".5" stroke-linejoin="round"/><path d="M87.1,90 l-5,3 l-1,-4" stroke="#43382d" stroke-width="1.2" fill="none" opacity=".5" stroke-linejoin="round"/><path d="M59,57 C58,66.9 55,70.2 55,75.7 Q55,85 64,86 Q73,85 73,75.7 C73,70.2 70,66.9 69,57Z" fill="#cdb99e" stroke="#43382d" stroke-opacity=".35" stroke-width="1.1"/><path d="M61,58 Q64,69.1 67,58" fill="#43382d" opacity=".18"/><path d="M58,77 Q64,74 70,77 Q69,82 64,83 Q59,82 58,77Z" fill="#1b1714"/><ellipse cx="62.2" cy="77" rx="1.6" ry=".9" fill="#fff" opacity=".35"/><path d="M64,83 V86 M59,87.5 Q64,89 64,86 Q64,89 69,87.5" stroke="#1b1714" stroke-width="1.3" fill="none" stroke-linecap="round"/><path d="M44.5,63.5 Q50,57.5 57,60.5 Q52,65.2 44.5,63.5Z" fill="#d9a032" stroke="#120f0c" stroke-width="1.3" stroke-linejoin="round"/><circle cx="51" cy="62" r="1.9" fill="#0b0908"/><circle cx="51.9" cy="61.1" r="0.7" fill="#fff" opacity=".9"/><path d="M83.5,63.5 Q78,57.5 71,60.5 Q76,65.2 83.5,63.5Z" fill="#d9a032" stroke="#120f0c" stroke-width="1.3" stroke-linejoin="round"/><circle cx="77" cy="62" r="1.9" fill="#0b0908"/><circle cx="76.1" cy="61.1" r="0.7" fill="#fff" opacity=".9"/></g></g><circle cx="64" cy="64" r="60.8" fill="none" stroke="#9fb2d4" stroke-width="2.5"/></svg>